<?xml version="1.0" encoding="UTF-8"?>
<svg width="32px" height="32px" viewBox="0 0 32 32" version="1.1" xmlns="http://www.w3.org/2000/svg" xmlns:xlink="http://www.w3.org/1999/xlink">
    <title>F6E3238A-9BAC-4961-A525-9A4DEA89134D</title>
    <g id="Project-Page" stroke="none" stroke-width="1" fill="none" fill-rule="evenodd">
        <g id="01-00-Strona-Glowna" transform="translate(-956.000000, -4496.000000)" fill="#FFFFFF">
            <g id="section--cta" transform="translate(256.000000, 4324.000000)">
                <g id="check" transform="translate(700.000000, 28.000000)">
                    <g transform="translate(0.000000, 144.000000)" id="icons/ui/check">
                        <path d="M14.117625,20.705875 C13.6188125,20.704 13.141625,20.5044375 12.7905625,20.1505625 L9.9670625,17.3270625 C9.232,16.592 9.232,15.3985625 9.9670625,14.6635625 C10.702125,13.9285625 11.8955625,13.9285 12.6305625,14.6635625 L14.221125,16.254125 L19.4823125,11.745875 C20.345375,11.166125 21.51525,11.3966875 22.0940625,12.25975 C22.575,12.9769375 22.50725,13.9284375 21.929375,14.569375 L15.341125,20.2164375 C15.0051875,20.5214375 14.5713125,20.6955 14.117625,20.705875 Z" id="Path"></path>
                        <path d="M16,32 C7.1633125,32 0,24.8366875 0,16 C0,7.1633125 7.1633125,0 16,0 C24.8366875,0 32,7.1633125 32,16 C32,24.8366875 24.8366875,32 16,32 Z M16,3.7646875 C9.242375,3.7646875 3.7646875,9.242375 3.7646875,16 C3.7646875,22.757625 9.242375,28.2353125 16,28.2353125 C22.757625,28.2353125 28.2353125,22.757625 28.2353125,16 C28.2353125,9.242375 22.757625,3.7646875 16,3.7646875 Z" id="Shape" opacity="0.159999996"></path>
                    </g>
                </g>
            </g>
        </g>
    </g>
</svg>